PathFileType	4	(X/Y/Z)	/Users/itak/Documents/Research/Walk-IL/dataset/trc/00409_00012.trc
DataRate	CameraRate	NumFrames	NumMarkers	Units	OrigDataRate	OrigDataStartFrame	OrigNumFrames
100.000000	100.000000	4	56	mm	100.000000	333	667
Frame#	Time	RPSI			LPSI			L3			STRN			T10			C7			CLAV			RBAK			LBAK			LSHO			LUPA			LAEL			LAOL			LWTS			LWPS			LFRA			LHPS			LHTS			RSHO			RUPA			RAEL			RAOL			RWTS			RWPS			RFRA			RIFD			RHTS			RHPS			RBHD			LFHD			RFHD			LBHD			LHIP			RHIP			RASI			LASI			LKNE			LTHI			LANK			LTIP			LTOE			LMT1			LMT5			LHEE			RKNE			RTHI			RANK			RTIP			RTOE			RMT5			RHEE			LIFD			RMT1			*53			*54			*55			
		X1	Y1	Z1	X2	Y2	Z2	X3	Y3	Z3	X4	Y4	Z4	X5	Y5	Z5	X6	Y6	Z6	X7	Y7	Z7	X8	Y8	Z8	X9	Y9	Z9	X10	Y10	Z10	X11	Y11	Z11	X12	Y12	Z12	X13	Y13	Z13	X14	Y14	Z14	X15	Y15	Z15	X16	Y16	Z16	X17	Y17	Z17	X18	Y18	Z18	X19	Y19	Z19	X20	Y20	Z20	X21	Y21	Z21	X22	Y22	Z22	X23	Y23	Z23	X24	Y24	Z24	X25	Y25	Z25	X26	Y26	Z26	X27	Y27	Z27	X28	Y28	Z28	X29	Y29	Z29	X30	Y30	Z30	X31	Y31	Z31	X32	Y32	Z32	X33	Y33	Z33	X34	Y34	Z34	X35	Y35	Z35	X36	Y36	Z36	X37	Y37	Z37	X38	Y38	Z38	X39	Y39	Z39	X40	Y40	Z40	X41	Y41	Z41	X42	Y42	Z42	X43	Y43	Z43	X44	Y44	Z44	X45	Y45	Z45	X46	Y46	Z46	X47	Y47	Z47	X48	Y48	Z48	X49	Y49	Z49	X50	Y50	Z50	X51	Y51	Z51	X52	Y52	Z52	X53	Y53	Z53	X54	Y54	Z54	X55	Y55	Z55	X56	Y56	Z56	

334	3.33	-414.2377014160156	942.1469116210938	-553.1083984375	-474.2282104492188	935.4273681640625	-671.5291137695312	-436.7877502441406	1027.302124023438	-612.6851806640625	-223.7534332275391	1177.917602539062	-681.2288208007812	-453.2414855957031	1126.123779296875	-617.282470703125	-422.5870666503906	1374.75537109375	-616.6693725585938	-273.7022705078125	1295.723022460938	-654.1090087890625	-453.1615905761719	1223.367065429688	-557.261962890625	-467.7453308105469	1349.522827148438	-714.4183349609375	-393.666259765625	1368.0673828125	-782.3678588867188	-443.21630859375	1259.230224609375	-851.2649536132812	-440.6133117675781	1071.729248046875	-904.0631103515625	-480.1915283203125	1038.33837890625	-836.385986328125	-269.8644409179688	923.1337280273438	-902.3136596679688	-313.4225463867188	899.445556640625	-968.318359375	-395.0472106933594	990.6268920898438	-933.003662109375	-261.949462890625	825.2794799804688	-970.6795654296875	-217.4909820556641	841.6884155273438	-932.3217163085938	-338.7111206054688	1338.95751953125	-478.7042236328125	-353.11767578125	1273.706420898438	-425.4865112304688	-405.1283569335938	1017.519714355469	-405.0186767578125	-417.6294860839844	1015.453674316406	-498.3978271484375	-325.8759460449219	782.9030151367188	-435.2124328613281	-370.5991821289062	780.5940551757812	-376.2684020996094	-395.1682434082031	949.927978515625	-388.2765197753906	-375.352783203125	613.558837890625	-437.1486511230469	-341.0149536132812	675.0369262695312	-421.4600219726562	-389.9175720214844	695.335205078125	-380.0538330078125	-389.3750305175781	1541.23486328125	-523.4855346679688	-251.8440856933594	1578.665893554688	-661.5487060546875	-259.3451232910156	1560.670532226562	-540.488525390625	-397.2613830566406	1561.837646484375	-684.0081787109375	-446.5698547363281	930.2063598632812	-812.4196166992188	-289.0148315429688	922.881591796875	-488.3402099609375	-198.2830047607422	936.91650390625	-598.093994140625	-325.4320678710938	930.0311279296875	-829.005126953125	-410.0177001953125	446.5724792480469	-874.8521118164062	-409.7159118652344	581.6777954101562	-861.23779296875	-766.2559204101562	212.3489685058594	-729.2533569335938	-594.399658203125	313.7172546386719	-815.1428833007812	-654.744873046875	32.39556884765625	-701.2774047851562	-669.9138793945312	100.2475967407227	-663.04443359375	-732.0745849609375	90.78951263427734	-750.7109375	-753.293701171875	246.8764495849609	-673.49560546875	-174.6661529541016	459.1978759765625	-658.9874877929688	-186.5246887207031	707.75830078125	-569.638671875	-234.5166778564453	49.57677841186523	-733.9760131835938	-167.9383239746094	336.42578125	-700.0546875	-88.94873809814453	36.70654678344727	-856.5367431640625	-155.7845611572266	43.21139144897461	-760.3842163085938	-321.6944274902344	39.38510131835938	-757.9883422851562	-195.1118316650391	764.7478637695312	-926.8172607421875	-171.212646484375	40.94116592407227	-858.4242553710938	nan	nan	nan	nan	nan	nan	nan	nan	nan	
335	3.34	-405.3141784667969	943.7135009765625	-556.200927734375	-464.59423828125	935.9916381835938	-675.1359252929688	-427.3642883300781	1028.4453125	-616.0761108398438	-213.8036346435547	1179.207397460938	-683.9208984375	-443.5436706542969	1127.3828125	-620.8472900390625	-413.2301025390625	1376.100463867188	-620.2858276367188	-264.0390319824219	1296.965698242188	-657.1241455078125	-443.6935424804688	1224.63330078125	-560.4443969726562	-457.8726196289062	1350.588256835938	-718.2369384765625	-383.5899353027344	1369.035888671875	-785.926513671875	-432.6288757324219	1259.779663085938	-854.6056518554688	-429.6315002441406	1071.31298828125	-906.7118530273438	-469.7055358886719	1038.9736328125	-838.7900390625	-262.75341796875	917.8294677734375	-903.602783203125	-307.6818237304688	893.904541015625	-968.7555541992188	-385.9529418945312	988.1985473632812	-934.6707763671875	-257.9681091308594	818.8469848632812	-970.6832275390625	-212.9998626708984	834.7069091796875	-933.2322998046875	-329.6487731933594	1340.6025390625	-482.0055236816406	-343.5832214355469	1274.964233398438	-428.4789428710938	-390.8931579589844	1017.742614746094	-407.078125	-405.4656066894531	1015.624816894531	-500.1592407226562	-307.0810852050781	785.2031860351562	-440.2366333007812	-350.3022155761719	781.5982055664062	-380.1604309082031	-379.2199401855469	950.234375	-390.9696960449219	-352.7037048339844	614.707763671875	-441.8176574707031	-319.1560974121094	677.008544921875	-426.6259765625	-367.7907104492188	695.9000854492188	-383.8730163574219	-380.8231811523438	1542.542724609375	-526.8897094726562	-242.1838684082031	1580.195068359375	-663.7117309570312	-250.6673583984375	1562.052978515625	-542.7427978515625	-387.3794555664062	1563.350341796875	-687.4254150390625	-435.7358703613281	930.7188110351562	-815.7039794921875	-280.5851440429688	924.4605712890625	-490.3794555664062	-189.0541229248047	938.00927734375	-599.4867553710938	-314.31689453125	931.3258056640625	-831.3453979492188	-386.1516723632812	448.0458374023438	-883.945068359375	-389.9644165039062	582.7793579101562	-868.58251953125	-745.2864379882812	216.150634765625	-742.748779296875	-571.4171142578125	315.9583129882812	-827.029052734375	-634.243408203125	33.92715454101562	-718.8325805664062	-649.5437622070312	102.1499176025391	-678.7150268554688	-710.9439697265625	95.63454437255859	-767.2338256835938	-732.989990234375	249.3095245361328	-686.0775756835938	-171.5555572509766	458.5812683105469	-658.8558959960938	-179.9450531005859	707.875732421875	-570.658447265625	-234.5062408447266	49.48015975952148	-733.8900756835938	-165.8039093017578	335.6748657226562	-699.74755859375	-88.99564361572266	36.74392700195312	-856.5642700195312	-155.726318359375	43.17697906494141	-760.2579345703125	-321.6873474121094	39.47178268432617	-757.8203125	-187.6366271972656	761.3375854492188	-929.1690673828125	-171.2455139160156	40.80429458618164	-858.3102416992188	nan	nan	nan	nan	nan	nan	nan	nan	nan	
336	3.35	-396.6658020019531	945.37744140625	-559.3181762695312	-455.0339660644531	936.9049072265625	-678.8460083007812	-418.1444702148438	1029.632934570312	-619.3038330078125	-203.9613647460938	1180.605224609375	-686.428955078125	-434.1949462890625	1128.684204101562	-624.19287109375	-404.0570983886719	1377.463623046875	-623.8858642578125	-254.5036773681641	1298.2978515625	-659.9894409179688	-434.4363098144531	1225.953979492188	-563.6368408203125	-448.0941772460938	1351.70068359375	-722.0401000976562	-373.5684814453125	1370.060302734375	-789.4292602539062	-422.0906677246094	1260.41455078125	-857.9155883789062	-418.7579650878906	1070.972778320312	-909.2913208007812	-459.2534790039062	1039.688720703125	-841.122802734375	-256.0462646484375	912.5946044921875	-904.9502563476562	-302.5242004394531	888.5104370117188	-969.1773071289062	-377.16455078125	985.861328125	-936.2818603515625	-254.6715240478516	812.6041259765625	-970.8187866210938	-208.483642578125	828.4138793945312	-934.6395263671875	-320.8737182617188	1342.307006835938	-485.2326965332031	-334.3232727050781	1276.316162109375	-431.3933715820312	-376.7465515136719	1018.131164550781	-408.9197998046875	-393.3633117675781	1015.813720703125	-501.6788940429688	-288.0858764648438	787.9066162109375	-445.0076599121094	-329.6116638183594	783.0662841796875	-383.7454528808594	-363.2462768554688	950.7687377929688	-393.4372253417969	-329.5051879882812	616.284912109375	-445.8624877929688	-296.9137573242188	679.4527587890625	-431.3658752441406	-345.1240844726562	696.959228515625	-387.2147827148438	-372.2646484375	1543.9658203125	-530.2560424804688	-232.4940490722656	1581.6650390625	-665.8545532226562	-241.9856872558594	1563.41455078125	-544.9793701171875	-377.4768676757812	1564.932373046875	-690.8037719726562	-424.7508850097656	931.5825805664062	-819.0165405273438	-272.565673828125	925.9929809570312	-492.2697448730469	-180.0587615966797	939.1506958007812	-600.5485229492188	-303.1195983886719	932.7886352539062	-833.4708862304688	-362.1235656738281	450.0258483886719	-892.3726806640625	-369.9730224609375	584.2987060546875	-875.5302734375	-723.2957153320312	218.6380920410156	-755.8544921875	-547.8463134765625	318.0415344238281	-838.3797607421875	-611.3094482421875	35.64520263671875	-737.6328125	-627.359619140625	103.0327911376953	-695.1575317382812	-687.908203125	99.83432006835938	-784.3546142578125	-711.8317260742188	250.1717529296875	-698.1146850585938	-168.8231964111328	457.9527893066406	-658.4000244140625	-173.7799224853516	707.9796142578125	-571.3350219726562	-234.4884490966797	49.38373184204102	-733.7880249023438	-163.9291229248047	334.9684448242188	-699.214111328125	-89.04650115966797	36.77194595336914	-856.5744018554688	-155.6353302001953	43.13173675537109	-760.0843505859375	-321.6335144042969	39.56256103515625	-757.5820922851562	-181.1656036376953	757.54931640625	-931.6755981445312	-171.2958221435547	40.69192886352539	-858.1968994140625	nan	nan	nan	nan	nan	nan	nan	nan	nan	
337	3.36	-388.2973937988281	947.1064453125	-562.4984130859375	-445.5262145996094	938.1334838867188	-682.69775390625	-409.1165466308594	1030.864990234375	-622.42724609375	-194.22265625	1182.12841796875	-688.7105102539062	-425.1511840820312	1130.029418945312	-627.3825073242188	-395.0705261230469	1378.842041015625	-627.4701538085938	-245.0936889648438	1299.745483398438	-662.6846313476562	-425.3834838867188	1227.32568359375	-566.85302734375	-438.4065856933594	1352.860473632812	-725.8280639648438	-363.5914916992188	1371.151611328125	-792.8701782226562	-411.5860595703125	1261.150512695312	-861.1959838867188	-408.0189514160156	1070.750854492188	-911.7866821289062	-448.8214111328125	1040.509765625	-843.3587036132812	-249.7576599121094	907.468994140625	-906.3469848632812	-297.9340209960938	883.3496704101562	-969.5802612304688	-368.6924743652344	983.6701049804688	-937.8326416015625	-252.071533203125	806.6087646484375	-971.0609130859375	-203.8014831542969	822.9630126953125	-936.5926513671875	-312.4019775390625	1344.080444335938	-488.3777770996094	-325.3664855957031	1277.78759765625	-434.228271484375	-362.8029479980469	1018.740234375	-410.5849304199219	-381.340087890625	1016.071411132812	-503.0163879394531	-268.9541320800781	791.0938720703125	-449.4593811035156	-308.6747436523438	785.067626953125	-387.0218811035156	-347.3720703125	951.5869750976562	-395.69775390625	-305.7148742675781	618.3855590820312	-449.3001098632812	-274.3065185546875	682.4675903320312	-435.6310729980469	-322	698.5885620117188	-390.1058959960938	-363.7083129882812	1545.504516601562	-533.5833740234375	-222.7704315185547	1583.07861328125	-667.9661865234375	-233.3014068603516	1564.74853515625	-547.1895141601562	-367.5498352050781	1566.593383789062	-694.137939453125	-413.53759765625	932.7967529296875	-822.3866577148438	-264.9991455078125	927.453369140625	-494.0242614746094	-171.267333984375	940.335693359375	-601.2236938476562	-291.7767639160156	934.4252319335938	-835.348876953125	-338.0331726074219	452.5016784667969	-900.07373046875	-349.7888488769531	586.2306518554688	-882.0421142578125	-700.3373413085938	219.8043518066406	-768.7183227539062	-523.77490234375	319.896240234375	-849.1961059570312	-586.11962890625	37.39231491088867	-757.1381225585938	-603.5709838867188	102.9673614501953	-712.0506591796875	-663.0828247070312	103.2902297973633	-801.7874755859375	-689.9219970703125	249.5165710449219	-709.8248901367188	-166.3975372314453	457.3414306640625	-657.7156372070312	-167.9674072265625	708.0728149414062	-571.7012939453125	-234.4732513427734	49.29306793212891	-733.6807861328125	-162.2716369628906	334.3265380859375	-698.5432739257812	-89.09275817871094	36.79043197631836	-856.57763671875	-155.5204772949219	43.08083343505859	-759.88330078125	-321.5441589355469	39.65326690673828	-757.2879028320312	-176.3820190429688	752.87060546875	-933.96484375	-171.353271484375	40.62805557250977	-858.0986328125	nan	nan	nan	nan	nan	nan	nan	nan	nan	
